<svg xmlns="http://www.w3.org/2000/svg" width="48" height="48" fill="none" overflow="visible"><path d="M 24 47.966 C 43.324 47.685 48 36.795 48 23.986 C 48 11.008 37.699 0.436 24.828 0 L 24.828 0.014 C 24.548 0.005 24.268 0 23.986 0 C 11.242 0 0.119 9.931 0.033 22.479 C 0 27.375 0 30 0 30 L 9.941 23.172 C 10.369 15.788 16.494 9.931 23.986 9.931 C 31.478 9.931 37.603 15.788 38.031 23.172 L 38.046 23.172 C 38.061 23.442 38.069 23.713 38.069 23.986 C 38.069 31.478 31.385 37.972 24 38.4 L 24 22.9 L 14.4 30.4 L 14.4 48 L 24 48 Z" fill="rgb(0, 0, 0)"></path></svg>
