<svg xmlns="http://www.w3.org/2000/svg" width="24" height="24" fill="none" viewBox="0 0 24 24"><path opacity=".3" d="M16 4H8a4 4 0 0 0-4 4v8a4 4 0 0 0 4 4h8a4 4 0 0 0 4-4V8a4 4 0 0 0-4-4Zm-4 12a4 4 0 1 1 0-8 4 4 0 0 1 0 8Z" fill="#000"></path><path d="M16 3H8C5.243 3 3 5.243 3 8v8c0 2.757 2.243 5 5 5h8c2.757 0 5-2.243 5-5V8c0-2.757-2.243-5-5-5Zm3 13c0 1.654-1.346 3-3 3H8c-1.654 0-3-1.346-3-3V8c0-1.654 1.346-3 3-3h8c1.654 0 3 1.346 3 3v8Z" fill="#000"></path><path d="M12 7c-2.757 0-5 2.243-5 5s2.243 5 5 5 5-2.243 5-5-2.243-5-5-5Zm0 8c-1.654 0-3-1.346-3-3s1.346-3 3-3 3 1.346 3 3-1.346 3-3 3Zm5-9a1 1 0 1 0 0 2 1 1 0 0 0 0-2Z" fill="#000"></path></svg>
