<svg xmlns="http://www.w3.org/2000/svg" viewBox="0 0 24 24">
  <path d="M19 20H5a1 1 0 0 1-1-1V5a1 1 0 0 1 1-1h14a1 1 0 0 1 1 1v14a1 1 0 0 1-1 1Z" opacity=".3"/>
  <path d="M8.998 17H6.475v-7h2.523v7ZM7.692 8.717c-.77 0-1.286-.514-1.286-1.2s.514-1.2 1.371-1.2c.771 0 1.286.514 1.286 1.2s-.514 1.2-1.37 1.2ZM17.998 17h-2.442v-3.826c0-1.058-.65-1.302-.895-1.302-.244 0-1.058.163-1.058 1.302V17H11.08v-7h2.523v.977c.325-.57.976-.977 2.197-.977 1.221 0 2.198.977 2.198 3.174V17Z"/>
  <path d="M19 3H5a2 2 0 0 0-2 2v14a2 2 0 0 0 2 2h14a2 2 0 0 0 2-2V5a2 2 0 0 0-2-2Zm0 16H5V5h14v14Z"/>
</svg>
