<svg xmlns="http://www.w3.org/2000/svg" viewBox="0 0 6536.6075 1750" width="6536.6075" height="1750" style="--bg:#1a1b26;--fg:#a9b1d6;--line:#3d59a1;--accent:#7aa2f7;--muted:#565f89;background:var(--bg)">
<style>
  text { font-family: system-ui, sans-serif; }
  svg {
    /* Derived from --bg and --fg (overridable via --line, --accent, etc.) */
    --_text:          var(--fg);
    --_text-sec:      var(--muted, color-mix(in srgb, var(--fg) 60%, var(--bg)));
    --_text-muted:    var(--muted, color-mix(in srgb, var(--fg) 40%, var(--bg)));
    --_text-faint:    color-mix(in srgb, var(--fg) 25%, var(--bg));
    --_line:          var(--line, color-mix(in srgb, var(--fg) 30%, var(--bg)));
    --_arrow:         var(--accent, color-mix(in srgb, var(--fg) 50%, var(--bg)));
    --_node-fill:     var(--surface, color-mix(in srgb, var(--fg) 3%, var(--bg)));
    --_node-stroke:   var(--border, color-mix(in srgb, var(--fg) 20%, var(--bg)));
    --_group-fill:    var(--bg);
    --_group-hdr:     color-mix(in srgb, var(--fg) 5%, var(--bg));
    --_inner-stroke:  color-mix(in srgb, var(--fg) 12%, var(--bg));
    --_key-badge:     color-mix(in srgb, var(--fg) 10%, var(--bg));
  }
</style>
<defs>
  <marker id="arrowhead" markerWidth="8" markerHeight="4.8" refX="8" refY="2.4" orient="auto">
    <polygon points="0 0, 8 2.4, 0 4.8" fill="var(--_arrow)" />
  </marker>
  <marker id="arrowhead-start" markerWidth="8" markerHeight="4.8" refX="0" refY="2.4" orient="auto-start-reverse">
    <polygon points="8 0, 0 2.4, 8 4.8" fill="var(--_arrow)" />
  </marker>
</defs>
<rect x="428.26750000000015" y="40" width="1525.475" height="405" rx="0" ry="0" fill="var(--_group-fill)" stroke="var(--_node-stroke)" stroke-width="1" />
<rect x="428.26750000000015" y="40" width="1525.475" height="28" rx="0" ry="0" fill="var(--_group-hdr)" stroke="var(--_node-stroke)" stroke-width="1" />
<text x="440.26750000000015" y="54" dy="0.35em" font-size="12" font-weight="600" fill="var(--_text-sec)">&quot;ENTRY POINTS&quot;</text>
<rect x="693.9699999999999" y="546" width="998.3500000000001" height="152" rx="0" ry="0" fill="var(--_group-fill)" stroke="var(--_node-stroke)" stroke-width="1" />
<rect x="693.9699999999999" y="546" width="998.3500000000001" height="28" rx="0" ry="0" fill="var(--_group-hdr)" stroke="var(--_node-stroke)" stroke-width="1" />
<text x="705.9699999999999" y="560" dy="0.35em" font-size="12" font-weight="600" fill="var(--_text-sec)">&quot;SETUP&quot;</text>
<rect x="40" y="799" width="3590.4575" height="405" rx="0" ry="0" fill="var(--_group-fill)" stroke="var(--_node-stroke)" stroke-width="1" />
<rect x="40" y="799" width="3590.4575" height="28" rx="0" ry="0" fill="var(--_group-hdr)" stroke="var(--_node-stroke)" stroke-width="1" />
<text x="52" y="813" dy="0.35em" font-size="12" font-weight="600" fill="var(--_text-sec)">&quot;CORE SKILLS&quot;</text>
<rect x="3650.4575" y="1052" width="1134.1999999999998" height="658" rx="0" ry="0" fill="var(--_group-fill)" stroke="var(--_node-stroke)" stroke-width="1" />
<rect x="3650.4575" y="1052" width="1134.1999999999998" height="28" rx="0" ry="0" fill="var(--_group-hdr)" stroke="var(--_node-stroke)" stroke-width="1" />
<text x="3662.4575" y="1066" dy="0.35em" font-size="12" font-weight="600" fill="var(--_text-sec)">&quot;EDITING SKILLS&quot;</text>
<rect x="1973.7425" y="40" width="1277.315" height="152" rx="0" ry="0" fill="var(--_group-fill)" stroke="var(--_node-stroke)" stroke-width="1" />
<rect x="1973.7425" y="40" width="1277.315" height="28" rx="0" ry="0" fill="var(--_group-hdr)" stroke="var(--_node-stroke)" stroke-width="1" />
<text x="1985.7425" y="54" dy="0.35em" font-size="12" font-weight="600" fill="var(--_text-sec)">&quot;INPUT SOURCES&quot;</text>
<rect x="2514.2825" y="293" width="1247.125" height="405" rx="0" ry="0" fill="var(--_group-fill)" stroke="var(--_node-stroke)" stroke-width="1" />
<rect x="2514.2825" y="293" width="1247.125" height="28" rx="0" ry="0" fill="var(--_group-hdr)" stroke="var(--_node-stroke)" stroke-width="1" />
<text x="2526.2825" y="307" dy="0.35em" font-size="12" font-weight="600" fill="var(--_text-sec)">&quot;SPEC LOADER &amp; REVIEW ENGINE&quot;</text>
<rect x="2811.0075" y="566" width="930.3999999999996" height="112" rx="0" ry="0" fill="var(--_group-fill)" stroke="var(--_node-stroke)" stroke-width="1" />
<rect x="2811.0075" y="566" width="930.3999999999996" height="28" rx="0" ry="0" fill="var(--_group-hdr)" stroke="var(--_node-stroke)" stroke-width="1" />
<text x="2823.0075" y="580" dy="0.35em" font-size="12" font-weight="600" fill="var(--_text-sec)">&quot;Four Design Pillars&quot;</text>
<rect x="5571.557499999999" y="1052" width="924.4499999999998" height="152" rx="0" ry="0" fill="var(--_group-fill)" stroke="var(--_node-stroke)" stroke-width="1" />
<rect x="5571.557499999999" y="1052" width="924.4499999999998" height="28" rx="0" ry="0" fill="var(--_group-hdr)" stroke="var(--_node-stroke)" stroke-width="1" />
<text x="5583.557499999999" y="1066" dy="0.35em" font-size="12" font-weight="600" fill="var(--_text-sec)">&quot;OUTPUTS&quot;</text>
<rect x="5476.807500000001" y="1305" width="1019.8000000000002" height="152" rx="0" ry="0" fill="var(--_group-fill)" stroke="var(--_node-stroke)" stroke-width="1" />
<rect x="5476.807500000001" y="1305" width="1019.8000000000002" height="28" rx="0" ry="0" fill="var(--_group-hdr)" stroke="var(--_node-stroke)" stroke-width="1" />
<text x="5488.807500000001" y="1319" dy="0.35em" font-size="12" font-weight="600" fill="var(--_text-sec)">&quot;SESSION ARTIFACTS&quot;</text>
<rect x="4804.6575" y="1052" width="746.8999999999996" height="152" rx="0" ry="0" fill="var(--_group-fill)" stroke="var(--_node-stroke)" stroke-width="1" />
<rect x="4804.6575" y="1052" width="746.8999999999996" height="28" rx="0" ry="0" fill="var(--_group-hdr)" stroke="var(--_node-stroke)" stroke-width="1" />
<text x="4816.6575" y="1066" dy="0.35em" font-size="12" font-weight="600" fill="var(--_text-sec)">&quot;WORKFLOWS&quot;</text>
<polyline points="1196.0049999999999,152 1196.0049999999999,369" fill="none" stroke="var(--_line)" stroke-width="0.75" marker-end="url(#arrowhead)" />
<polyline points="1196.0049999999999,405 1196.0049999999999,425 1193.145,425 1193.145,622" fill="none" stroke="var(--_line)" stroke-width="0.75" marker-end="url(#arrowhead)" />
<polyline points="1193.145,658 1193.145,893 2123.83,893" fill="none" stroke="var(--_line)" stroke-width="0.75" marker-end="url(#arrowhead)" />
<polyline points="1196.0049999999999,405 1196.0049999999999,425 1733.48,425 1733.48,893 2123.83,893" fill="none" stroke="var(--_line)" stroke-width="0.75" marker-end="url(#arrowhead)" />
<polyline points="1196.0049999999999,405 1196.0049999999999,425 658.53,425 658.53,875" fill="none" stroke="var(--_line)" stroke-width="0.75" marker-end="url(#arrowhead)" />
<polyline points="2704.68,911 2704.68,931 305.87750000000005,931 305.87750000000005,1146 61.99999999999994,1146" fill="none" stroke="var(--_line)" stroke-width="0.75" marker-end="url(#arrowhead)" />
<polyline points="658.53,911 658.53,931 561.755,931 561.755,1146 987.75,1146" fill="none" stroke="var(--_line)" stroke-width="0.75" marker-end="url(#arrowhead)" />
<polyline points="2704.68,911 2704.68,931 638.375,931 638.375,1146 3672.4575,1146" fill="none" stroke="var(--_line)" stroke-width="0.75" marker-end="url(#arrowhead)" />
<polyline points="658.53,911 658.53,931 706.415,931 706.415,1146 3672.4575,1146" fill="none" stroke="var(--_line)" stroke-width="0.75" marker-end="url(#arrowhead)" />
<polyline points="4217.5575,1164 4217.5575,1381" fill="none" stroke="var(--_line)" stroke-width="0.75" marker-end="url(#arrowhead)" />
<polyline points="4217.5575,1417 4217.5575,1634" fill="none" stroke="var(--_line)" stroke-width="0.75" marker-end="url(#arrowhead)" />
<polyline points="2788.8325,152 2788.8325,387 2536.2825,387" fill="none" stroke="var(--_line)" stroke-width="0.75" marker-end="url(#arrowhead)" />
<polyline points="3095.0825,152 3095.0825,387 3347.6325,387" fill="none" stroke="var(--_line)" stroke-width="0.75" marker-end="url(#arrowhead)" />
<polyline points="2136.8675,152 2136.8675,893 2123.83,893" fill="none" stroke="var(--_line)" stroke-width="0.75" marker-end="url(#arrowhead)" />
<polyline points="2410.9424999999997,152 2410.9424999999997,893 2123.83,893" fill="none" stroke="var(--_line)" stroke-width="0.75" stroke-dasharray="4 4" marker-end="url(#arrowhead)" />
<polyline points="2941.9575,405 2941.9575,622" fill="none" stroke="var(--_line)" stroke-width="0.75" marker-end="url(#arrowhead)" />
<polyline points="2941.9575,658 2941.9575,893 3285.5299999999997,893" fill="none" stroke="var(--_line)" stroke-width="0.75" marker-end="url(#arrowhead)" />
<polyline points="3180.2825,658 3180.2825,893 3285.5299999999997,893" fill="none" stroke="var(--_line)" stroke-width="0.75" marker-end="url(#arrowhead)" />
<polyline points="3393.5825,658 3393.5825,893 3285.5299999999997,893" fill="none" stroke="var(--_line)" stroke-width="0.75" marker-end="url(#arrowhead)" />
<polyline points="3610.4575,658 3610.4575,893 3285.5299999999997,893" fill="none" stroke="var(--_line)" stroke-width="0.75" marker-end="url(#arrowhead)" />
<polyline points="2704.68,911 2704.68,931 3299.0325,931 3299.0325,1146 5593.557500000001,1146" fill="none" stroke="var(--_line)" stroke-width="0.75" marker-end="url(#arrowhead)" />
<polyline points="2704.68,911 2704.68,931 3319.0325,931 3319.0325,1146 5864.057500000001,1146" fill="none" stroke="var(--_line)" stroke-width="0.75" marker-end="url(#arrowhead)" />
<polyline points="2704.68,911 2704.68,931 3339.0325,931 3339.0325,1146 6134.557499999999,1146" fill="none" stroke="var(--_line)" stroke-width="0.75" marker-end="url(#arrowhead)" />
<polyline points="5716.807500000001,1164 5716.807500000001,1399 5498.807500000001,1399" fill="none" stroke="var(--_line)" stroke-width="0.75" marker-end="url(#arrowhead)" />
<polyline points="5987.307500000001,1164 5986.991710526317,1381" fill="none" stroke="var(--_line)" stroke-width="0.75" marker-end="url(#arrowhead)" />
<polyline points="2704.68,911 2704.68,931 1291.6025,931 1291.6025,1146 4826.657499999999,1146" fill="none" stroke="var(--_line)" stroke-width="0.75" marker-end="url(#arrowhead)" />
<polyline points="658.53,911 658.53,931 1976.1325000000002,931 1976.1325000000002,1146 5154.3575,1146" fill="none" stroke="var(--_line)" stroke-width="0.75" marker-end="url(#arrowhead)" />
<rect x="1165.1249999999998" y="247" width="61.760000000000005" height="27" rx="4" ry="4" fill="var(--bg)" stroke="var(--_inner-stroke)" stroke-width="0.5" />
<text x="1196.0049999999999" y="260.5" text-anchor="middle" dy="0.35em" font-size="11" font-weight="400" fill="var(--_text-muted)">triggers</text>
<rect x="1159.405" y="500" width="67.48" height="27" rx="4" ry="4" fill="var(--bg)" stroke="var(--_inner-stroke)" stroke-width="0.5" />
<text x="1193.145" y="513.5" text-anchor="middle" dy="0.35em" font-size="11" font-weight="400" fill="var(--_text-muted)">first run</text>
<rect x="1170.845" y="753" width="44.6" height="27" rx="4" ry="4" fill="var(--bg)" stroke="var(--_inner-stroke)" stroke-width="0.5" />
<text x="1193.145" y="766.5" text-anchor="middle" dy="0.35em" font-size="11" font-weight="400" fill="var(--_text-muted)">ready</text>
<rect x="1708.32" y="626.5" width="50.32" height="27" rx="4" ry="4" fill="var(--bg)" stroke="var(--_inner-stroke)" stroke-width="0.5" />
<text x="1733.48" y="640" text-anchor="middle" dy="0.35em" font-size="11" font-weight="400" fill="var(--_text-muted)">review</text>
<rect x="639.0899999999999" y="626.5" width="38.88" height="27" rx="4" ry="4" fill="var(--bg)" stroke="var(--_inner-stroke)" stroke-width="0.5" />
<text x="658.53" y="640" text-anchor="middle" dy="0.35em" font-size="11" font-weight="400" fill="var(--_text-muted)">pick</text>
<rect x="274.99750000000006" y="1006" width="61.760000000000005" height="27" rx="4" ry="4" fill="var(--bg)" stroke="var(--_inner-stroke)" stroke-width="0.5" />
<text x="305.87750000000005" y="1019.5" text-anchor="middle" dy="0.35em" font-size="11" font-weight="400" fill="var(--_text-muted)">captures</text>
<rect x="530.875" y="1006" width="61.760000000000005" height="27" rx="4" ry="4" fill="var(--bg)" stroke="var(--_inner-stroke)" stroke-width="0.5" />
<text x="561.755" y="1019.5" text-anchor="middle" dy="0.35em" font-size="11" font-weight="400" fill="var(--_text-muted)">captures</text>
<rect x="604.635" y="1006" width="67.48" height="27" rx="4" ry="4" fill="var(--bg)" stroke="var(--_inner-stroke)" stroke-width="0.5" />
<text x="638.375" y="1019.5" text-anchor="middle" dy="0.35em" font-size="11" font-weight="400" fill="var(--_text-muted)">annotates</text>
<rect x="684.115" y="1006" width="44.6" height="27" rx="4" ry="4" fill="var(--bg)" stroke="var(--_inner-stroke)" stroke-width="0.5" />
<text x="706.415" y="1019.5" text-anchor="middle" dy="0.35em" font-size="11" font-weight="400" fill="var(--_text-muted)">edits</text>
<rect x="4195.2575" y="1259" width="44.6" height="27" rx="4" ry="4" fill="var(--bg)" stroke="var(--_inner-stroke)" stroke-width="0.5" />
<text x="4217.5575" y="1272.5" text-anchor="middle" dy="0.35em" font-size="11" font-weight="400" fill="var(--_text-muted)">saves</text>
<rect x="4186.6775" y="1512" width="61.760000000000005" height="27" rx="4" ry="4" fill="var(--bg)" stroke="var(--_inner-stroke)" stroke-width="0.5" />
<text x="4217.5575" y="1525.5" text-anchor="middle" dy="0.35em" font-size="11" font-weight="400" fill="var(--_text-muted)">confirms</text>
<rect x="2380.0624999999995" y="500" width="61.760000000000005" height="27" rx="4" ry="4" fill="var(--bg)" stroke="var(--_inner-stroke)" stroke-width="0.5" />
<text x="2410.9424999999997" y="513.5" text-anchor="middle" dy="0.35em" font-size="11" font-weight="400" fill="var(--_text-muted)">optional</text>
<rect x="1011.9799999999999" y="116" width="368.05" height="36" rx="0" ry="0" fill="var(--_node-fill)" stroke="var(--_node-stroke)" stroke-width="0.75" />
<rect x="797.4799999999998" y="369" width="797.0500000000001" height="36" rx="0" ry="0" fill="var(--_node-fill)" stroke="var(--_node-stroke)" stroke-width="0.75" />
<rect x="715.97" y="622" width="954.35" height="36" rx="0" ry="0" fill="var(--_node-fill)" stroke="var(--_node-stroke)" stroke-width="0.75" />
<rect x="2123.83" y="875" width="1161.7" height="36" rx="0" ry="0" fill="var(--_node-fill)" stroke="var(--_node-stroke)" stroke-width="0.75" />
<rect x="61.99999999999994" y="1128" width="925.7500000000001" height="36" rx="0" ry="0" fill="var(--_node-fill)" stroke="var(--_node-stroke)" stroke-width="0.75" />
<rect x="131.30499999999995" y="875" width="1054.45" height="36" rx="0" ry="0" fill="var(--_node-fill)" stroke="var(--_node-stroke)" stroke-width="0.75" />
<rect x="3672.4575" y="1128" width="1090.2" height="36" rx="0" ry="0" fill="var(--_node-fill)" stroke="var(--_node-stroke)" stroke-width="0.75" />
<rect x="3758.2574999999997" y="1381" width="918.6" height="36" rx="0" ry="0" fill="var(--_node-fill)" stroke="var(--_node-stroke)" stroke-width="0.75" />
<rect x="3758.2574999999997" y="1634" width="918.6" height="36" rx="0" ry="0" fill="var(--_node-fill)" stroke="var(--_node-stroke)" stroke-width="0.75" />
<rect x="2640.5575" y="116" width="296.55" height="36" rx="0" ry="0" fill="var(--_node-fill)" stroke="var(--_node-stroke)" stroke-width="0.75" />
<rect x="2961.1075" y="116" width="267.95000000000005" height="36" rx="0" ry="0" fill="var(--_node-fill)" stroke="var(--_node-stroke)" stroke-width="0.75" />
<rect x="1995.7424999999998" y="116" width="282.25" height="36" rx="0" ry="0" fill="var(--_node-fill)" stroke="var(--_node-stroke)" stroke-width="0.75" />
<rect x="2301.9925" y="116" width="217.9" height="36" rx="0" ry="0" fill="var(--_node-fill)" stroke="var(--_node-stroke)" stroke-width="0.75" />
<rect x="2536.2825" y="369" width="811.35" height="36" rx="0" ry="0" fill="var(--_node-fill)" stroke="var(--_node-stroke)" stroke-width="0.75" />
<rect x="2833.0075" y="622" width="217.9" height="36" rx="0" ry="0" fill="var(--_node-fill)" stroke="var(--_node-stroke)" stroke-width="0.75" />
<rect x="3074.9075" y="622" width="210.75000000000003" height="36" rx="0" ry="0" fill="var(--_node-fill)" stroke="var(--_node-stroke)" stroke-width="0.75" />
<rect x="3309.6575" y="622" width="167.85000000000002" height="36" rx="0" ry="0" fill="var(--_node-fill)" stroke="var(--_node-stroke)" stroke-width="0.75" />
<rect x="3501.5075" y="622" width="217.9" height="36" rx="0" ry="0" fill="var(--_node-fill)" stroke="var(--_node-stroke)" stroke-width="0.75" />
<rect x="5593.557500000001" y="1128" width="246.50000000000003" height="36" rx="0" ry="0" fill="var(--_node-fill)" stroke="var(--_node-stroke)" stroke-width="0.75" />
<rect x="5864.057500000001" y="1128" width="246.50000000000003" height="36" rx="0" ry="0" fill="var(--_node-fill)" stroke="var(--_node-stroke)" stroke-width="0.75" />
<rect x="6134.557499999999" y="1128" width="339.45000000000005" height="36" rx="0" ry="0" fill="var(--_node-fill)" stroke="var(--_node-stroke)" stroke-width="0.75" />
<rect x="5498.807500000001" y="1381" width="975.8000000000001" height="36" rx="0" ry="0" fill="var(--_node-fill)" stroke="var(--_node-stroke)" stroke-width="0.75" />
<rect x="4826.657499999999" y="1128" width="303.70000000000005" height="36" rx="0" ry="0" fill="var(--_node-fill)" stroke="var(--_node-stroke)" stroke-width="0.75" />
<rect x="5154.3575" y="1128" width="375.20000000000005" height="36" rx="0" ry="0" fill="var(--_node-fill)" stroke="var(--_node-stroke)" stroke-width="0.75" />
<text x="1196.0049999999999" y="134" text-anchor="middle" dy="0.35em" font-size="13" font-weight="500" fill="var(--_text)">&quot;Any AI Agent&lt;br/&gt;(Copilot, Claude, Cursor)&quot;</text>
<text x="1196.0049999999999" y="387" text-anchor="middle" dy="0.35em" font-size="13" font-weight="500" fill="var(--_text)">&quot;Natural Language Prompts&lt;br/&gt;• Review design at URL&lt;br/&gt;• Compare to reference&lt;br/&gt;• Pick element to edit&quot;</text>
<text x="1193.145" y="640" text-anchor="middle" dy="0.35em" font-size="13" font-weight="500" fill="var(--_text)">&quot;agent-canvas-setup&lt;br/&gt;─────────────────&lt;br/&gt;• Check Python/uv/Playwright&lt;br/&gt;• Install missing deps&lt;br/&gt;• Validate environment&quot;</text>
<text x="2704.68" y="893" text-anchor="middle" dy="0.35em" font-size="13" font-weight="500" fill="var(--_text)">&quot;design-review&lt;br/&gt;─────────────────&lt;br/&gt;• Load design specs&lt;br/&gt;• Run compliance checks&lt;br/&gt;• Generate issues by severity&lt;br/&gt;• Create annotated screenshots&quot;</text>
<text x="524.875" y="1146" text-anchor="middle" dy="0.35em" font-size="13" font-weight="500" fill="var(--_text)">&quot;agent-eyes&lt;br/&gt;─────────────────&lt;br/&gt;• Screenshots&lt;br/&gt;• Accessibility scans&lt;br/&gt;• DOM snapshots&lt;br/&gt;• Element descriptions&quot;</text>
<text x="658.53" y="893" text-anchor="middle" dy="0.35em" font-size="13" font-weight="500" fill="var(--_text)">&quot;agent-canvas&lt;br/&gt;─────────────────&lt;br/&gt;• Interactive picker&lt;br/&gt;• Click-to-select UI&lt;br/&gt;• Compliance indicators&lt;br/&gt;• Add to Review workflow&quot;</text>
<text x="4217.5575" y="1146" text-anchor="middle" dy="0.35em" font-size="13" font-weight="500" fill="var(--_text)">&quot;canvas-edit&lt;br/&gt;─────────────────&lt;br/&gt;• Live annotation overlay&lt;br/&gt;• Numbered issue badges&lt;br/&gt;• Severity color coding&lt;br/&gt;• Filter by issue type&quot;</text>
<text x="4217.5575" y="1399" text-anchor="middle" dy="0.35em" font-size="13" font-weight="500" fill="var(--_text)">&quot;canvas-apply&lt;br/&gt;─────────────────&lt;br/&gt;• Convert edits to code&lt;br/&gt;• Map selectors to files&lt;br/&gt;• Generate CSS/TSX changes&quot;</text>
<text x="4217.5575" y="1652" text-anchor="middle" dy="0.35em" font-size="13" font-weight="500" fill="var(--_text)">&quot;canvas-verify&lt;br/&gt;─────────────────&lt;br/&gt;• Before/after comparison&lt;br/&gt;• Visual diff generation&lt;br/&gt;• Confirm fixes applied&quot;</text>
<text x="2788.8325" y="134" text-anchor="middle" dy="0.35em" font-size="13" font-weight="500" fill="var(--_text)">&quot;DESIGN-SPEC.md&lt;br/&gt;(Project custom)&quot;</text>
<text x="3095.0825" y="134" text-anchor="middle" dy="0.35em" font-size="13" font-weight="500" fill="var(--_text)">&quot;specs/default.md&lt;br/&gt;(Built-in)&quot;</text>
<text x="2136.8675" y="134" text-anchor="middle" dy="0.35em" font-size="13" font-weight="500" fill="var(--_text)">&quot;imgs/*.png&lt;br/&gt;(Reference images)&quot;</text>
<text x="2410.9424999999997" y="134" text-anchor="middle" dy="0.35em" font-size="13" font-weight="500" fill="var(--_text)">&quot;Figma MCP&lt;br/&gt;(Optional)&quot;</text>
<text x="2941.9575" y="387" text-anchor="middle" dy="0.35em" font-size="13" font-weight="500" fill="var(--_text)">&quot;Spec Loader&lt;br/&gt;─────────────────&lt;br/&gt;• Parse markdown specs&lt;br/&gt;• Support inheritance&lt;br/&gt;• Extract checks&quot;</text>
<text x="2941.9575" y="640" text-anchor="middle" dy="0.35em" font-size="13" font-weight="500" fill="var(--_text)">&quot;Frictionless&lt;br/&gt;Insight&quot;</text>
<text x="3180.2825" y="640" text-anchor="middle" dy="0.35em" font-size="13" font-weight="500" fill="var(--_text)">&quot;Progressive&lt;br/&gt;Clarity&quot;</text>
<text x="3393.5825" y="640" text-anchor="middle" dy="0.35em" font-size="13" font-weight="500" fill="var(--_text)">&quot;Quality&lt;br/&gt;Craft&quot;</text>
<text x="3610.4575" y="640" text-anchor="middle" dy="0.35em" font-size="13" font-weight="500" fill="var(--_text)">&quot;Trustworthy&lt;br/&gt;Building&quot;</text>
<text x="5716.807500000001" y="1146" text-anchor="middle" dy="0.35em" font-size="13" font-weight="500" fill="var(--_text)">&quot;annotated.png&lt;br/&gt;(Redlined)&quot;</text>
<text x="5987.307500000001" y="1146" text-anchor="middle" dy="0.35em" font-size="13" font-weight="500" fill="var(--_text)">&quot;report.json&lt;br/&gt;(Structured)&quot;</text>
<text x="6304.282499999999" y="1146" text-anchor="middle" dy="0.35em" font-size="13" font-weight="500" fill="var(--_text)">&quot;DESIGN-REVIEW-TASKS.md&lt;br/&gt;(Action items)&quot;</text>
<text x="5986.7075" y="1399" text-anchor="middle" dy="0.35em" font-size="13" font-weight="500" fill="var(--_text)">&quot;.canvas/reviews/session-id/&lt;br/&gt;├── session.json&lt;br/&gt;├── report.json&lt;br/&gt;├── screenshot.png&lt;br/&gt;├── annotated.png&lt;br/&gt;└── diff.png&quot;</text>
<text x="4978.5075" y="1146" text-anchor="middle" dy="0.35em" font-size="13" font-weight="500" fill="var(--_text)">&quot;Design QA:&lt;br/&gt;REVIEW → FIX → VERIFY&quot;</text>
<text x="5341.9575" y="1146" text-anchor="middle" dy="0.35em" font-size="13" font-weight="500" fill="var(--_text)">&quot;Live Editing:&lt;br/&gt;PICK → EDIT → APPLY → VERIFY&quot;</text>
</svg>
